<?xml version="1.0" standalone="no"?>
<!DOCTYPE svg PUBLIC "-//W3C//DTD SVG 20010904//EN"
 "http://www.w3.org/TR/2001/REC-SVG-20010904/DTD/svg10.dtd">
<svg version="1.0" xmlns="http://www.w3.org/2000/svg"
 width="1280.000000pt" height="720.000000pt" viewBox="0 0 1280.000000 720.000000"
 preserveAspectRatio="xMidYMid meet">

<g transform="translate(0.000000,720.000000) scale(0.100000,-0.100000)"
fill="#000" stroke="none">
<path d="M6307 5498 c-154 -161 -383 -418 -430 -480 -12 -16 -24 -28 -28 -28
-3 0 -37 25 -74 55 -36 30 -69 55 -72 55 -9 0 -258 -206 -422 -350 -91 -79
-269 -246 -396 -371 l-230 -226 -104 90 -104 90 -46 -50 c-25 -28 -84 -91
-130 -142 -122 -134 -118 -133 -190 -77 -33 25 -63 46 -66 46 -4 0 -39 -28
-79 -63 -109 -96 -100 -92 -134 -67 l-30 22 -72 -61 c-40 -34 -77 -61 -82 -61
-5 0 -25 12 -44 26 -31 24 -38 26 -62 15 -48 -22 -436 -259 -599 -366 l-158
-104 -23 46 c-13 25 -27 41 -32 37 -4 -5 -65 -117 -135 -249 -70 -132 -136
-254 -146 -271 -11 -17 -19 -34 -19 -38 0 -3 58 -6 129 -6 l129 0 6 78 c4 42
10 113 14 157 l8 80 8 -140 c4 -77 10 -148 12 -157 5 -16 21 -18 159 -18 l153
0 7 68 c8 96 18 159 21 142 2 -8 6 -59 9 -112 l7 -98 132 0 133 0 12 112 c7
62 14 114 17 117 2 2 4 -21 4 -51 0 -30 3 -83 6 -117 l7 -61 117 0 117 0 12
88 c7 48 16 112 21 142 6 43 8 25 9 -87 l1 -143 139 0 139 0 13 123 c14 121
14 122 20 62 4 -33 7 -88 8 -122 l1 -63 104 0 c117 0 116 -1 117 78 0 26 4 65
8 87 7 36 8 31 15 -50 4 -49 9 -96 11 -102 3 -9 35 -13 113 -13 l109 0 12 100
c6 56 11 113 11 128 0 21 2 24 10 12 5 -8 10 -66 10 -127 l0 -113 70 0 c39 0
70 3 70 7 0 13 -124 418 -130 426 -4 4 -24 -34 -45 -85 -21 -51 -58 -136 -82
-188 l-44 -94 -19 41 c-10 23 -35 87 -56 143 l-37 101 -15 -33 c-8 -18 -31
-82 -52 -143 -21 -62 -40 -104 -44 -95 -15 41 -88 292 -98 343 -7 31 -14 57
-18 57 -3 0 -44 -82 -91 -181 -48 -99 -90 -181 -94 -182 -9 -2 -12 9 -91 257
-43 136 -48 146 -59 125 -7 -13 -48 -109 -91 -214 -43 -104 -79 -192 -81 -194
-7 -9 -13 11 -52 178 -22 96 -43 176 -45 178 -2 2 -48 -75 -101 -172 -54 -97
-101 -173 -105 -168 -4 4 -32 81 -61 170 -29 90 -57 159 -60 155 -11 -11 -85
-230 -99 -294 -7 -32 -16 -58 -19 -58 -7 0 -176 369 -176 384 0 6 9 15 20 21
11 5 87 45 168 88 82 42 152 77 158 77 5 0 56 -34 113 -75 57 -41 107 -75 111
-75 15 0 300 246 374 323 103 107 250 251 282 276 l26 20 39 -32 c21 -17 131
-108 244 -202 395 -328 583 -474 662 -514 117 -60 166 -65 586 -59 199 3 362
4 362 3 0 -2 -73 -43 -162 -93 -190 -105 -356 -202 -347 -202 15 0 150 64 579
275 252 125 482 231 515 240 68 17 199 19 265 4 80 -18 221 -93 381 -201 180
-122 208 -138 244 -138 15 0 119 48 232 106 167 86 211 105 235 100 16 -3 133
-70 261 -149 291 -181 328 -201 402 -224 55 -17 106 -18 665 -17 526 1 849 8
838 19 -2 2 -140 9 -307 16 l-304 13 -27 37 -27 38 -34 -35 c-18 -18 -36 -34
-39 -34 -4 0 -14 16 -23 35 -9 19 -20 35 -24 35 -5 0 -19 -17 -32 -37 l-24
-37 -21 42 c-11 23 -23 42 -27 42 -3 0 -19 -18 -34 -40 -15 -22 -34 -40 -41
-40 -8 0 -24 20 -36 45 -12 25 -25 45 -28 45 -3 0 -16 -18 -30 -40 -35 -57
-53 -52 -79 20 -12 33 -26 60 -30 60 -4 0 -20 -27 -36 -60 -16 -33 -32 -60
-36 -60 -9 0 -26 54 -35 113 -4 20 -9 37 -13 37 -3 -1 -21 -34 -40 -75 -19
-41 -38 -75 -43 -75 -4 0 -20 25 -35 55 -15 30 -30 55 -34 55 -3 0 -12 -20
-19 -45 -7 -25 -18 -44 -24 -42 -6 2 -22 31 -35 65 -13 34 -28 62 -32 62 -4 0
-20 -16 -35 -35 -14 -19 -30 -35 -33 -35 -4 0 -119 65 -256 145 -321 187 -280
185 -543 30 -190 -112 -228 -127 -262 -105 -13 9 -13 12 0 23 289 229 575 462
644 523 172 154 209 174 321 174 80 0 133 16 164 50 15 15 50 91 80 169 30 78
58 144 62 147 5 3 60 -36 123 -86 64 -49 121 -90 128 -90 7 0 27 9 43 20 36
24 26 26 -17 4 -30 -16 -31 -16 -77 28 -119 111 -161 153 -161 160 0 4 35 8
79 8 92 0 224 21 336 54 120 35 125 36 163 21 36 -16 361 -236 362 -246 0 -3
-24 -13 -54 -22 -135 -43 -363 -174 -543 -313 -133 -102 -116 -98 -380 -104
-127 -3 -234 -8 -237 -10 -2 -3 110 -5 249 -5 l254 0 120 83 121 83 42 -22
c32 -16 39 -18 30 -6 -8 9 -22 19 -33 22 -27 9 -24 18 15 39 36 19 67 17 98
-6 17 -12 14 -21 -32 -128 -27 -63 -50 -120 -50 -127 0 -30 -21 -19 -51 29
l-33 51 -24 -54 -24 -54 -21 58 c-12 31 -23 57 -26 57 -3 0 -32 -50 -64 -110
l-58 -110 39 0 40 0 15 58 15 57 1 -57 1 -58 44 0 c41 0 44 2 50 31 3 17 6 42
6 56 0 14 4 21 10 18 6 -3 10 -28 10 -56 l0 -49 75 0 74 0 6 33 c3 17 9 70 14
117 7 69 9 76 11 38 1 -27 4 -52 5 -58 1 -5 3 -37 4 -70 l1 -60 94 0 95 0 6
43 c3 23 9 71 14 107 8 64 9 64 10 -42 l1 -108 124 0 124 0 7 63 c3 34 10 96
14 137 l8 75 2 -100 c1 -55 4 -117 7 -138 l7 -38 126 3 126 3 7 94 c8 107 16
138 17 70 1 -25 4 -74 7 -108 l7 -61 103 0 c118 0 109 -10 120 120 8 95 10 92
19 -32 l7 -88 83 0 c93 0 95 1 95 88 0 23 5 42 10 42 6 0 10 -19 10 -42 0 -80
6 -88 61 -88 l48 0 7 51 c8 57 24 48 24 -13 0 -38 0 -38 40 -38 43 0 47 6 31
56 -6 16 -19 62 -31 102 -11 39 -24 72 -28 72 -4 0 -22 -29 -40 -65 -17 -36
-35 -65 -39 -65 -5 0 -21 36 -38 80 -16 44 -32 80 -35 80 -3 0 -21 -28 -40
-62 -19 -34 -39 -63 -45 -65 -5 -1 -32 49 -59 112 -27 63 -52 115 -55 115 -3
0 -21 -23 -39 -51 l-33 -50 -32 20 c-18 11 -128 87 -245 168 -228 159 -673
452 -734 484 -53 27 -115 24 -203 -11 -42 -16 -82 -30 -89 -30 -8 0 -28 23
-46 50 -18 28 -35 50 -40 50 -4 0 -44 -25 -88 -55 l-82 -54 -87 99 c-48 55
-90 100 -93 100 -3 0 -63 -38 -134 -84 -125 -81 -130 -83 -160 -71 -18 7 -111
17 -216 23 l-184 10 -27 31 c-24 30 -93 142 -233 383 -79 136 -161 241 -267
342 -50 48 -93 86 -95 84 -2 -2 3 -80 10 -173 8 -94 13 -171 11 -173 -3 -4
-101 180 -188 353 l-65 131 -88 11 c-153 19 -289 79 -396 173 l-46 40 -165
-172z m213 -36 c126 -320 218 -382 362 -245 l37 36 140 -279 c199 -396 255
-503 258 -500 2 2 -77 167 -175 367 -98 200 -187 383 -197 407 -10 23 -22 42
-26 42 -4 0 -17 -12 -29 -27 -40 -52 -90 -83 -135 -83 -50 0 -77 25 -128 120
-34 64 -111 259 -105 265 2 2 25 -9 50 -25 100 -62 259 -110 366 -110 l49 0
152 -297 151 -298 -6 190 -5 190 41 -45 c67 -72 151 -188 214 -295 235 -399
276 -455 329 -455 20 0 37 -13 67 -51 43 -55 47 -64 28 -72 -7 -3 -38 -17 -70
-31 l-56 -25 -76 70 c-42 38 -80 69 -84 69 -4 -1 -81 -118 -171 -260 -143
-228 -166 -259 -180 -248 -9 7 -109 91 -224 186 l-208 173 -153 -135 c-247
-218 -264 -239 -52 -62 110 92 203 165 207 164 4 -2 102 -87 218 -190 l211
-187 171 257 c94 141 176 261 180 267 6 6 37 -19 82 -63 l73 -72 218 90 c120
49 222 90 227 90 8 0 193 -224 219 -266 11 -17 9 -27 -14 -72 -36 -70 -61 -82
-184 -82 -125 0 -166 -19 -289 -133 -48 -46 -207 -189 -353 -319 -146 -129
-278 -250 -294 -267 -17 -17 -35 -31 -41 -31 -7 0 -86 52 -176 115 -167 117
-326 204 -411 224 -26 6 -83 11 -127 11 -128 0 -237 -40 -509 -188 l-93 -51
-14 32 c-7 18 -21 56 -31 85 -10 28 -21 52 -24 52 -5 0 -16 -28 -65 -154 -10
-28 -12 -23 -29 70 -10 54 -23 114 -30 133 l-12 35 -53 -132 c-29 -73 -55
-132 -56 -132 -2 0 -13 30 -25 68 -13 37 -26 71 -30 76 -5 4 -18 -24 -31 -63
-13 -39 -26 -71 -30 -71 -8 0 -49 164 -49 194 0 37 -19 10 -61 -84 -24 -55
-47 -100 -51 -100 -8 0 -17 30 -49 175 -12 55 -25 104 -30 109 -8 9 -50 -122
-69 -217 -7 -32 -14 -57 -16 -54 -2 2 -22 53 -43 113 l-39 109 -47 -100 c-26
-55 -48 -101 -50 -103 -5 -6 -93 35 -126 59 l-30 21 23 27 c49 54 51 64 6 28
-40 -33 -50 -37 -67 -27 -12 6 -21 13 -21 16 0 3 30 40 68 82 l67 77 -76 -68
c-42 -37 -81 -67 -86 -67 -6 0 -16 7 -23 16 -12 13 1 30 91 121 l104 107 -84
-75 c-152 -135 -145 -130 -171 -112 -22 16 -22 16 86 126 117 120 111 118 -34
-12 -82 -74 -94 -82 -110 -70 -9 7 -18 14 -19 14 -2 1 68 73 155 160 162 163
152 158 -53 -27 -66 -60 -124 -108 -130 -108 -5 1 -21 10 -34 21 l-25 20 135
137 c143 146 138 144 -38 -16 -62 -56 -116 -102 -121 -102 -5 0 -16 7 -23 16
-12 15 4 34 146 173 174 169 171 167 -38 -18 -99 -88 -142 -121 -154 -117 -13
5 26 50 173 198 186 189 170 177 -110 -81 -55 -50 -102 -91 -105 -91 -4 1 -17
10 -31 22 l-25 21 140 134 c247 237 515 481 720 658 219 187 435 365 445 365
4 0 11 -19 17 -42 14 -59 155 -572 159 -576 1 -2 106 54 233 124 128 69 233
125 235 123 2 -2 48 -104 101 -227 54 -122 100 -221 101 -219 3 3 -184 478
-190 484 -1 2 -103 -49 -225 -113 -122 -64 -225 -113 -229 -109 -8 8 -140 525
-134 525 2 0 26 -18 52 -40 l48 -40 54 67 c157 200 546 639 556 629 2 -3 26
-59 52 -124z m1499 -1086 l34 -34 -31 -16 -31 -16 -36 46 c-19 26 -35 51 -35
57 0 20 66 -5 99 -37z m71 10 l23 -25 -27 -7 c-15 -3 -28 -5 -29 -3 -1 2 -13
16 -26 32 l-24 27 30 0 c18 0 38 -9 53 -24z m67 8 c7 -23 -30 -25 -51 -4 l-21
21 34 -3 c19 -2 36 -8 38 -14z m40 10 c-3 -3 -12 -4 -19 -1 -8 3 -5 6 6 6 11
1 17 -2 13 -5z m1545 -345 c43 -28 78 -56 78 -61 0 -13 -29 -68 -36 -68 -3 0
-60 33 -127 72 -118 71 -120 73 -90 81 30 9 43 3 206 -90 4 -2 7 -2 7 0 0 3
-34 26 -76 52 -55 34 -72 50 -62 56 19 12 14 14 100 -42z m-96 -65 c74 -42
134 -80 132 -84 -29 -72 -144 -298 -149 -293 -3 5 -26 67 -49 138 -23 72 -45
133 -49 137 -4 4 -31 -54 -60 -130 -29 -75 -57 -141 -61 -145 -6 -7 -110 234
-110 257 0 4 7 6 15 2 28 -11 15 2 -30 28 -25 15 -45 31 -45 35 0 5 13 14 29
20 26 11 38 8 132 -38 115 -56 114 -53 -6 16 l-79 46 41 20 40 20 104 -58 c57
-32 119 -66 137 -77 17 -11 32 -17 32 -14 0 3 -54 37 -120 77 -66 39 -120 75
-120 79 0 6 35 23 78 39 1 1 63 -33 138 -75z m315 -79 c57 -37 105 -69 107
-70 2 -2 -13 -38 -33 -82 -21 -43 -44 -94 -52 -113 -13 -29 -16 -32 -25 -17
-21 39 -123 357 -113 353 6 -2 58 -34 116 -71z m-131 -24 c0 -6 -4 -13 -10
-16 -5 -3 -10 1 -10 9 0 9 5 16 10 16 6 0 10 -4 10 -9z m-6238 -58 c60 -39 68
-50 44 -59 -14 -5 -126 62 -126 76 0 8 11 20 18 20 3 0 32 -17 64 -37z m-35
-35 c34 -24 61 -47 59 -53 -6 -22 -36 -14 -99 28 -51 33 -64 46 -55 55 18 18
28 15 95 -30z m5973 18 c0 -3 -4 -8 -10 -11 -5 -3 -10 -1 -10 4 0 6 5 11 10
11 6 0 10 -2 10 -4z m557 -18 c-3 -8 -6 -5 -6 6 -1 11 2 17 5 13 3 -3 4 -12 1
-19z m-6577 -34 c39 -26 70 -50 70 -54 0 -4 -6 -13 -14 -19 -11 -9 -31 -1 -94
40 -72 47 -79 54 -64 65 24 19 25 19 102 -32z m6270 36 c0 -5 -2 -10 -4 -10
-3 0 -8 5 -11 10 -3 6 -1 10 4 10 6 0 11 -4 11 -10z m575 0 c3 -5 1 -10 -4
-10 -6 0 -11 5 -11 10 0 6 2 10 4 10 3 0 8 -4 11 -10z m-485 -4 c0 -3 -4 -8
-10 -11 -5 -3 -10 -1 -10 4 0 6 5 11 10 11 6 0 10 -2 10 -4z m325 -27 c30 -17
57 -35 60 -39 6 -10 -35 -100 -46 -100 -6 0 -22 33 -66 138 -7 17 -11 32 -8
32 3 0 30 -14 60 -31z m-6717 -55 c34 -21 62 -42 62 -45 0 -3 -11 -16 -25 -29
l-25 -23 -91 60 -90 60 33 20 c27 17 36 18 53 8 11 -6 48 -30 83 -51z m-88
-47 c41 -28 77 -52 79 -54 3 -2 -7 -16 -22 -30 l-26 -27 -95 65 c-52 35 -95
67 -96 70 0 10 65 37 75 31 6 -3 44 -28 85 -55z m5950 59 c0 -3 -4 -8 -10 -11
-5 -3 -10 -1 -10 4 0 6 5 11 10 11 6 0 10 -2 10 -4z m530 -21 c-7 -9 -15 -13
-17 -11 -7 7 7 26 19 26 6 0 6 -6 -2 -15z m270 5 c0 -5 -4 -10 -10 -10 -5 0
-10 5 -10 10 0 6 5 10 10 10 6 0 10 -4 10 -10z m-570 -10 c0 -5 -5 -10 -11
-10 -5 0 -7 5 -4 10 3 6 8 10 11 10 2 0 4 -4 4 -10z m185 0 c3 -5 2 -10 -4
-10 -5 0 -13 5 -16 10 -3 6 -2 10 4 10 5 0 13 -4 16 -10z m-6440 -87 l96 -67
-34 -34 -35 -35 -106 74 c-58 41 -105 77 -106 81 0 7 68 47 82 48 4 0 50 -30
103 -67z m5695 57 c0 -5 -5 -10 -11 -10 -5 0 -7 5 -4 10 3 6 8 10 11 10 2 0 4
-4 4 -10z m1404 -15 c-4 -8 -8 -15 -10 -15 -2 0 -4 7 -4 15 0 8 4 15 10 15 5
0 7 -7 4 -15z m-114 -5 c0 -5 -4 -10 -9 -10 -6 0 -13 5 -16 10 -3 6 1 10 9 10
9 0 16 -4 16 -10z m-936 -15 c-4 -8 -10 -15 -15 -15 -4 0 -6 7 -3 15 4 8 10
15 15 15 4 0 6 -7 3 -15z m111 -5 c3 -5 1 -10 -4 -10 -6 0 -11 5 -11 10 0 6 2
10 4 10 3 0 8 -4 11 -10z m115 0 c0 -5 -4 -10 -10 -10 -5 0 -10 5 -10 10 0 6
5 10 10 10 6 0 10 -4 10 -10z m135 0 c3 -5 2 -10 -4 -10 -5 0 -13 5 -16 10 -3
6 -2 10 4 10 5 0 13 -4 16 -10z m155 -15 c-7 -8 -17 -15 -23 -15 -5 0 -2 9 8
20 21 23 35 19 15 -5z m160 15 c0 -5 -2 -10 -4 -10 -3 0 -8 5 -11 10 -3 6 -1
10 4 10 6 0 11 -4 11 -10z m-790 -10 c0 -5 -7 -7 -15 -4 -8 4 -15 8 -15 10 0
2 7 4 15 4 8 0 15 -4 15 -10z m-270 -20 c0 -5 -4 -10 -10 -10 -5 0 -10 5 -10
10 0 6 5 10 10 10 6 0 10 -4 10 -10z m105 -10 c3 -5 1 -10 -4 -10 -6 0 -11 5
-11 10 0 6 2 10 4 10 3 0 8 -4 11 -10z m1180 -10 c3 -5 1 -10 -4 -10 -6 0 -11
5 -11 10 0 6 2 10 4 10 3 0 8 -4 11 -10z m-895 -4 c0 -3 -4 -8 -10 -11 -5 -3
-10 -1 -10 4 0 6 5 11 10 11 6 0 10 -2 10 -4z m90 -6 c0 -5 -2 -10 -4 -10 -3
0 -8 5 -11 10 -3 6 -1 10 4 10 6 0 11 -4 11 -10z m260 -6 c0 -2 -7 -4 -15 -4
-8 0 -15 4 -15 10 0 5 7 7 15 4 8 -4 15 -8 15 -10z m720 12 c0 -3 -4 -8 -10
-11 -5 -3 -10 -1 -10 4 0 6 5 11 10 11 6 0 10 -2 10 -4z m65 -6 c3 -5 1 -10
-4 -10 -6 0 -11 5 -11 10 0 6 2 10 4 10 3 0 8 -4 11 -10z m-1275 -10 c0 -5 -2
-10 -4 -10 -3 0 -8 5 -11 10 -3 6 -1 10 4 10 6 0 11 -4 11 -10z m360 -5 c-7
-9 -15 -13 -19 -10 -3 3 1 10 9 15 21 14 24 12 10 -5z m295 5 c-3 -5 -11 -10
-16 -10 -6 0 -7 5 -4 10 3 6 11 10 16 10 6 0 7 -4 4 -10z m135 0 c0 -5 -2 -10
-4 -10 -3 0 -8 5 -11 10 -3 6 -1 10 4 10 6 0 11 -4 11 -10z m-1070 -20 c0 -5
-2 -10 -4 -10 -3 0 -8 5 -11 10 -3 6 -1 10 4 10 6 0 11 -4 11 -10z m117 -6
c-3 -3 -12 -4 -19 -1 -8 3 -5 6 6 6 11 1 17 -2 13 -5z m-6370 -121 c-3 -10 -5
-4 -5 12 0 17 2 24 5 18 2 -7 2 -21 0 -30z m960 -65 c-3 -7 -5 -2 -5 12 0 14
2 19 5 13 2 -7 2 -19 0 -25z m320 -10 c-3 -8 -6 -5 -6 6 -1 11 2 17 5 13 3 -3
4 -12 1 -19z m-1322 2 c3 -5 1 -10 -4 -10 -6 0 -11 5 -11 10 0 6 2 10 4 10 3
0 8 -4 11 -10z m105 -14 c0 -3 -4 -8 -10 -11 -5 -3 -10 -1 -10 4 0 6 5 11 10
11 6 0 10 -2 10 -4z m615 -15 c3 -5 1 -12 -5 -16 -5 -3 -10 1 -10 9 0 18 6 21
15 7z m-318 -33 c-3 -8 -6 -5 -6 6 -1 11 2 17 5 13 3 -3 4 -12 1 -19z m-427
-43 c7 -8 8 -15 2 -15 -5 0 -15 7 -22 15 -7 8 -8 15 -2 15 5 0 15 -7 22 -15z
m140 -5 c-8 -5 -22 -10 -30 -10 -13 0 -13 1 0 10 8 5 22 10 30 10 13 0 13 -1
0 -10z m840 0 c0 -5 -2 -10 -4 -10 -3 0 -8 5 -11 10 -3 6 -1 10 4 10 6 0 11
-4 11 -10z m92 -12 c-7 -7 -12 -8 -12 -2 0 6 3 14 7 17 3 4 9 5 12 2 2 -3 -1
-11 -7 -17z m308 2 c0 -5 -4 -10 -10 -10 -5 0 -10 5 -10 10 0 6 5 10 10 10 6
0 10 -4 10 -10z m-685 -10 c3 -5 1 -10 -4 -10 -6 0 -11 5 -11 10 0 6 2 10 4
10 3 0 8 -4 11 -10z m1120 -10 c3 -5 1 -10 -4 -10 -6 0 -11 5 -11 10 0 6 2 10
4 10 3 0 8 -4 11 -10z m-1335 -39 c0 -6 -4 -13 -10 -16 -5 -3 -10 1 -10 9 0 9
5 16 10 16 6 0 10 -4 10 -9z m-514 -16 c10 -8 14 -15 8 -15 -5 0 -19 7 -30 15
-10 8 -14 15 -8 15 5 0 19 -7 30 -15z m180 -10 c-11 -8 -25 -15 -30 -15 -6 0
-2 7 8 15 11 8 25 15 30 15 6 0 2 -7 -8 -15z m814 -17 c0 -13 -23 -5 -28 10
-2 7 2 10 12 6 9 -3 16 -11 16 -16z m-585 2 c3 -5 1 -10 -4 -10 -6 0 -11 5
-11 10 0 6 2 10 4 10 3 0 8 -4 11 -10z m407 -12 c-7 -7 -12 -8 -12 -2 0 6 3
14 7 17 3 4 9 5 12 2 2 -3 -1 -11 -7 -17z m473 12 c3 -5 1 -10 -4 -10 -6 0
-11 5 -11 10 0 6 2 10 4 10 3 0 8 -4 11 -10z m140 0 c-3 -5 -11 -10 -16 -10
-6 0 -7 5 -4 10 3 6 11 10 16 10 6 0 7 -4 4 -10z m-730 -10 c3 -5 2 -10 -4
-10 -5 0 -13 5 -16 10 -3 6 -2 10 4 10 5 0 13 -4 16 -10z m435 6 c0 -3 -4 -8
-10 -11 -5 -3 -10 -1 -10 4 0 6 5 11 10 11 6 0 10 -2 10 -4z m695 -6 c3 -5 1
-10 -4 -10 -6 0 -11 5 -11 10 0 6 2 10 4 10 3 0 8 -4 11 -10z m-165 -4 c0 -3
-4 -8 -10 -11 -5 -3 -10 -1 -10 4 0 6 5 11 10 11 6 0 10 -2 10 -4z m280 -11
c-7 -9 -15 -13 -17 -11 -7 7 7 26 19 26 6 0 6 -6 -2 -15z m-1974 -40 c10 -8
14 -15 8 -15 -5 0 -19 7 -30 15 -10 8 -14 15 -8 15 5 0 19 -7 30 -15z m240
-10 c-11 -8 -25 -15 -30 -15 -6 0 -2 7 8 15 11 8 25 15 30 15 6 0 2 -7 -8 -15z
m324 -5 c0 -5 -5 -10 -11 -10 -5 0 -7 5 -4 10 3 6 8 10 11 10 2 0 4 -4 4 -10z
m430 -12 c0 -6 -6 -5 -15 2 -8 7 -15 14 -15 16 0 2 7 1 15 -2 8 -4 15 -11 15
-16z m315 12 c3 -5 2 -10 -4 -10 -5 0 -13 5 -16 10 -3 6 -2 10 4 10 5 0 13 -4
16 -10z m167 -12 c-6 -6 -15 -8 -19 -4 -4 4 -1 11 7 16 19 12 27 3 12 -12z
m118 1 c0 -6 -4 -7 -10 -4 -5 3 -10 11 -10 16 0 6 5 7 10 4 6 -3 10 -11 10
-16z m-1175 1 c3 -5 1 -10 -4 -10 -6 0 -11 5 -11 10 0 6 2 10 4 10 3 0 8 -4
11 -10z m276 -7 c13 -15 12 -15 -8 -4 -24 12 -29 21 -14 21 5 0 15 -7 22 -17z
m174 7 c-3 -5 -14 -10 -23 -10 -15 0 -15 2 -2 10 20 13 33 13 25 0z m295 -5
c-7 -8 -17 -15 -22 -15 -6 0 -5 7 2 15 7 8 17 15 22 15 6 0 5 -7 -2 -15z m550
5 c0 -5 -5 -10 -11 -10 -5 0 -7 5 -4 10 3 6 8 10 11 10 2 0 4 -4 4 -10z m125
-1 c11 -17 -1 -21 -15 -4 -8 9 -8 15 -2 15 6 0 14 -5 17 -11z"/>
<path d="M9955 3460 c-14 -6 2 -9 50 -9 48 0 64 3 50 9 -11 5 -33 9 -50 9 -16
0 -39 -4 -50 -9z"/>
<path d="M8047 3423 c18 -2 50 -2 70 0 21 2 7 4 -32 4 -38 0 -55 -2 -38 -4z"/>
<path d="M8493 3413 c43 -2 110 -2 150 0 40 1 5 3 -78 3 -82 0 -115 -2 -72 -3z"/>
<path d="M10458 3413 c23 -2 61 -2 85 0 23 2 4 4 -43 4 -47 0 -66 -2 -42 -4z"/>
<path d="M9023 3393 c15 -2 37 -2 50 0 12 2 0 4 -28 4 -27 0 -38 -2 -22 -4z"/>
<path d="M9552 3373 c70 -2 187 -2 260 0 73 1 16 3 -127 3 -143 0 -203 -2
-133 -3z"/>
<path d="M8403 3293 c31 -2 83 -2 115 0 31 2 5 3 -58 3 -63 0 -89 -1 -57 -3z"/>
<path d="M8875 3290 c-4 -6 37 -10 115 -10 78 0 119 4 115 10 -4 6 -53 10
-115 10 -62 0 -111 -4 -115 -10z"/>
<path d="M9953 3253 c48 -2 125 -2 170 0 45 1 6 3 -88 3 -93 0 -130 -2 -82 -3z"/>
<path d="M10438 3233 c23 -2 61 -2 85 0 23 2 4 4 -43 4 -47 0 -66 -2 -42 -4z"/>
<path d="M5038 3203 c12 -2 32 -2 45 0 12 2 2 4 -23 4 -25 0 -35 -2 -22 -4z"/>
<path d="M5423 3183 c37 -2 97 -2 135 0 37 2 6 3 -68 3 -74 0 -105 -1 -67 -3z"/>
<path d="M9498 3173 c23 -2 61 -2 85 0 23 2 4 4 -43 4 -47 0 -66 -2 -42 -4z"/>
<path d="M5110 3100 c-11 -7 4 -10 50 -10 46 0 61 3 50 10 -8 5 -31 10 -50 10
-19 0 -42 -5 -50 -10z"/>
<path d="M9918 3103 c29 -2 74 -2 100 0 26 2 2 3 -53 3 -55 0 -76 -1 -47 -3z"/>
<path d="M5393 3093 c9 -2 25 -2 35 0 9 3 1 5 -18 5 -19 0 -27 -2 -17 -5z"/>
<path d="M4808 3063 c23 -2 59 -2 80 0 20 2 1 4 -43 4 -44 0 -61 -2 -37 -4z"/>
<path d="M5158 2993 c23 -2 59 -2 80 0 20 2 1 4 -43 4 -44 0 -61 -2 -37 -4z"/>
<path d="M2144 2859 c-204 -25 -314 -211 -218 -366 37 -58 101 -92 233 -123
112 -27 127 -33 142 -61 9 -17 8 -25 -7 -39 -19 -19 -41 -23 -106 -21 -40 1
-108 50 -108 78 0 11 -7 13 -27 9 -16 -4 -66 -13 -112 -21 -46 -8 -86 -16 -87
-18 -2 -2 10 -32 27 -66 36 -71 93 -120 172 -148 72 -24 223 -24 297 0 176 58
251 224 164 364 -39 63 -86 88 -237 125 -67 16 -128 35 -134 40 -20 16 -15 56
6 68 11 5 41 10 67 10 42 0 51 -4 83 -38 l36 -38 97 31 96 30 -18 36 c-59 113
-197 169 -366 148z"/>
<path d="M4470 2860 c-188 -22 -310 -181 -310 -403 0 -161 58 -281 166 -348
111 -68 284 -57 371 23 l22 21 11 -27 c5 -15 10 -31 10 -36 0 -15 49 -20 123
-11 4 1 6 97 5 214 l-3 212 -177 3 -178 2 0 -79 c0 -90 1 -91 81 -91 59 0 64
-16 20 -61 -34 -33 -83 -39 -131 -14 -46 24 -63 67 -68 176 -8 165 32 249 118
249 31 0 44 -6 65 -31 14 -18 29 -45 32 -61 6 -28 8 -30 47 -24 23 3 73 8 111
12 39 3 72 8 74 10 3 2 -3 30 -13 61 -26 80 -111 166 -187 186 -71 20 -122 24
-189 17z"/>
<path d="M2814 2835 c-4 -8 -57 -181 -119 -383 -74 -239 -110 -369 -103 -373
14 -9 162 -9 174 -1 5 4 20 40 32 80 l23 72 103 0 102 0 25 -77 24 -78 113 -2
c80 -1 114 2 117 10 3 7 -48 181 -113 387 l-118 375 -127 3 c-108 2 -128 0
-133 -13z m140 -322 c14 -50 26 -97 26 -102 0 -7 -25 -11 -61 -11 -55 0 -60 2
-54 19 3 11 15 52 26 93 24 89 28 102 33 97 2 -2 15 -45 30 -96z"/>
<path d="M3380 2466 l0 -386 23 -5 c13 -4 57 -5 98 -3 l74 3 0 205 c-1 113 -4
223 -8 245 -6 37 -3 34 34 -35 46 -84 225 -376 246 -401 10 -12 33 -16 95 -16
45 -1 88 1 95 4 10 4 13 82 13 389 l0 384 -102 0 -101 0 7 -182 c3 -101 9
-196 12 -213 4 -24 -1 -18 -25 25 -16 30 -75 125 -129 210 l-99 155 -117 3
-116 3 0 -385z"/>
<path d="M4992 2463 l3 -388 270 0 270 0 3 93 3 92 -141 1 c-77 1 -146 2 -152
3 -10 1 -14 68 -16 294 l-2 292 -120 0 -120 0 2 -387z"/>
<path d="M5797 2843 c-5 -8 -237 -758 -237 -765 0 -6 188 -3 193 2 1 3 13 38
25 78 l23 72 103 0 102 0 25 -77 24 -78 118 0 c74 0 117 3 117 10 0 5 -53 179
-118 385 l-118 375 -126 3 c-70 1 -129 -1 -131 -5z m137 -333 c14 -52 26 -98
26 -102 0 -5 -27 -8 -61 -8 -55 0 -60 2 -54 19 3 11 15 52 26 93 24 89 28 102
33 97 2 -2 16 -47 30 -99z"/>
<path d="M6660 2465 l0 -385 23 -5 c12 -3 65 -5 117 -3 l95 3 3 148 3 147 38
0 c37 0 39 -2 56 -47 10 -27 35 -94 57 -150 l39 -102 125 1 c68 0 127 4 129 8
3 4 -24 78 -60 164 -66 159 -72 176 -56 176 23 0 98 82 109 118 28 94 12 171
-47 233 -70 72 -105 79 -393 79 l-238 0 0 -385z m420 200 c30 -27 27 -78 -6
-104 -22 -17 -41 -21 -100 -21 l-74 0 0 76 0 77 80 -5 c58 -3 85 -10 100 -23z"/>
<path d="M7472 2463 l3 -388 290 0 290 0 3 93 3 92 -176 0 -175 0 0 65 0 65
140 0 140 0 0 85 0 85 -140 0 -140 0 0 55 0 55 175 0 175 0 0 90 0 90 -295 0
-295 0 2 -387z"/>
<path d="M8090 2760 l0 -90 80 0 80 0 0 -294 c0 -226 3 -295 13 -298 6 -2 58
-5 115 -7 l102 -3 0 301 0 301 80 0 80 0 0 90 0 90 -275 0 -275 0 0 -90z"/>
<path d="M8712 2463 l3 -388 115 0 115 0 3 148 3 147 38 0 38 0 53 -140 c29
-78 60 -144 69 -149 18 -9 236 -9 245 0 4 3 -23 76 -59 162 -66 160 -72 177
-56 177 23 0 98 82 109 118 28 94 12 171 -47 233 -70 72 -105 79 -393 79
l-238 0 2 -387z m418 202 c30 -27 27 -78 -6 -104 -22 -17 -41 -21 -100 -21
l-74 0 0 76 0 77 80 -5 c58 -3 85 -10 100 -23z"/>
<path d="M9520 2465 l0 -385 23 -5 c12 -3 144 -5 292 -3 l270 3 3 93 3 92
-176 0 -175 0 0 65 0 65 140 0 140 0 0 85 0 85 -140 0 -140 0 0 55 0 55 175 0
175 0 0 90 0 90 -295 0 -295 0 0 -385z"/>
<path d="M10374 2836 c-26 -68 -232 -752 -228 -758 6 -10 165 -10 179 0 6 4
21 40 33 80 l23 72 103 0 102 0 25 -77 24 -78 113 -1 c75 -1 115 3 118 10 2 6
-49 180 -114 386 l-118 375 -127 3 c-104 2 -128 0 -133 -12z m140 -326 c14
-52 26 -98 26 -102 0 -5 -27 -8 -61 -8 -46 0 -60 3 -56 13 3 7 15 49 26 92 28
100 31 109 35 104 2 -2 16 -47 30 -99z"/>
<path d="M10840 2760 l0 -89 81 -3 81 -3 -2 -291 c-1 -241 2 -292 13 -297 8
-3 60 -5 116 -5 l101 -1 0 300 0 299 80 0 80 0 0 90 0 90 -275 0 -275 0 0 -90z"/>
<path d="M3647 2008 c-9 -7 -32 -70 -52 -142 -20 -72 -43 -143 -51 -158 -18
-36 -51 -37 -60 -3 -7 30 -15 31 -39 5 -21 -23 -14 -47 17 -59 68 -25 97 19
165 254 6 21 42 -165 43 -222 0 -38 10 -46 42 -34 26 10 56 84 84 210 16 73
40 111 70 111 10 0 14 7 12 22 -4 31 -24 33 -52 5 -17 -18 -31 -54 -51 -140
-15 -65 -30 -117 -34 -117 -4 0 -16 63 -27 140 -20 147 -26 159 -67 128z"/>
<path d="M5563 2009 c-45 -13 -86 -65 -78 -98 3 -14 15 -34 26 -43 20 -17 20
-17 -14 -32 -43 -17 -67 -51 -67 -92 0 -47 9 -63 43 -81 43 -22 118 -20 167 6
l40 21 0 -21 c0 -16 5 -20 27 -17 25 3 29 9 40 57 11 54 63 124 79 108 4 -4 0
-40 -9 -80 -22 -91 -22 -87 13 -87 25 0 30 5 39 38 6 20 11 42 11 49 0 20 62
85 72 75 5 -5 2 -27 -7 -51 -22 -64 -20 -100 8 -110 25 -10 50 0 89 36 l26 25
14 -29 c18 -39 64 -43 105 -9 24 20 37 24 64 20 31 -5 38 -1 77 40 24 25 47
46 53 46 12 0 12 -1 -7 -45 -8 -21 -13 -48 -10 -60 9 -37 35 -38 88 -5 27 16
51 30 52 30 2 0 6 -9 9 -20 12 -47 91 -39 118 13 12 22 13 22 21 -9 12 -46 35
-50 83 -17 l40 29 21 -25 c35 -41 106 -29 165 30 18 18 19 18 19 1 0 -28 34
-54 73 -55 40 -1 117 44 117 69 0 13 -5 12 -29 -5 -32 -23 -71 -27 -89 -9 -21
21 -13 34 28 52 23 10 48 28 56 41 33 50 -15 90 -77 65 -34 -14 -79 -74 -79
-105 0 -27 -63 -67 -98 -63 -39 4 -56 45 -42 98 10 37 40 67 54 53 3 -3 6 -17
6 -30 0 -26 3 -27 31 -13 41 22 12 70 -42 70 -31 0 -109 -81 -109 -113 0 -16
-10 -34 -26 -46 -48 -38 -56 -10 -24 90 10 35 18 65 16 67 -2 2 -18 -3 -34
-12 -26 -14 -31 -14 -42 -1 -18 22 -51 18 -93 -10 -35 -24 -67 -70 -67 -95 0
-16 -42 -49 -62 -50 -24 0 -23 32 2 105 11 32 18 61 15 63 -3 3 -20 -11 -39
-31 -39 -43 -48 -46 -46 -14 3 37 1 47 -13 47 -27 0 -50 -37 -45 -72 6 -40
-25 -88 -57 -88 -33 0 -34 7 -8 58 27 53 27 95 1 100 -27 5 -59 -55 -56 -106
1 -28 -3 -48 -14 -58 -23 -24 -48 -11 -48 25 0 45 17 82 59 126 55 58 71 85
71 122 0 41 -7 44 -59 31 -35 -9 -46 -18 -63 -52 -27 -53 -68 -174 -68 -200 0
-22 -65 -74 -77 -62 -3 3 1 36 10 73 25 104 -4 132 -76 72 -33 -27 -37 -28
-37 -11 0 26 -24 45 -48 38 -10 -4 -33 -20 -50 -37 -33 -33 -39 -29 -22 17 10
25 9 26 -12 20 -13 -3 -28 -6 -35 -6 -10 0 -25 -39 -49 -127 -6 -22 -68 -53
-106 -53 -41 0 -78 35 -78 75 0 35 36 73 73 77 37 4 53 38 18 38 -27 0 -46 39
-37 74 9 36 51 63 71 46 8 -7 15 -18 15 -26 0 -20 21 -28 31 -13 16 25 10 46
-16 57 -30 14 -47 14 -92 1z m687 -35 c0 -26 -67 -131 -77 -121 -5 6 35 108
49 124 14 18 28 16 28 -3z m408 -162 c6 -55 -49 -135 -79 -116 -23 14 5 116
38 142 25 18 38 10 41 -26z m440 10 c3 -21 -29 -62 -48 -62 -16 0 -12 43 6 68
19 27 38 24 42 -6z"/>
<path d="M7490 2011 c-83 -27 -127 -71 -159 -156 -59 -158 30 -276 129 -171
31 32 36 32 44 1 12 -48 83 -50 131 -5 25 23 35 25 35 6 0 -38 67 -51 100 -21
19 17 21 17 33 2 21 -28 73 -26 112 5 37 29 111 34 118 7 12 -46 91 -37 118
14 12 22 13 22 21 -9 12 -46 35 -50 85 -15 l44 31 9 -24 c15 -41 47 -39 96 6
21 19 21 19 38 -7 27 -41 67 -34 127 22 28 26 58 59 67 75 9 15 19 28 22 28
10 0 40 -69 40 -90 0 -11 -10 -24 -22 -31 -18 -10 -24 -8 -39 12 -15 20 -19
21 -33 10 -39 -33 -1 -66 57 -50 66 18 101 87 73 145 -9 19 -16 44 -16 55 0
15 -5 19 -16 15 -9 -3 -21 -6 -27 -6 -7 0 -21 -18 -31 -40 -26 -54 -109 -132
-132 -123 -32 12 0 133 36 133 13 0 20 7 20 20 0 12 -7 20 -16 20 -12 0 -15 6
-10 23 20 72 21 67 -15 57 -19 -6 -34 -10 -35 -10 0 0 -6 -18 -13 -40 -7 -23
-18 -40 -26 -40 -8 0 -15 -9 -15 -20 0 -11 4 -20 9 -20 14 0 -10 -72 -33 -97
-46 -53 -59 -14 -26 82 11 32 19 59 18 60 -2 2 -17 0 -35 -2 -27 -4 -34 -11
-47 -51 -9 -25 -16 -53 -16 -61 0 -18 -59 -63 -72 -55 -12 8 -10 33 12 103 11
36 18 67 16 69 -2 2 -18 -3 -34 -12 -26 -14 -31 -14 -42 -1 -7 8 -22 15 -35
15 -33 0 -100 -53 -115 -91 -18 -45 -39 -69 -62 -69 -22 0 -22 7 -3 53 17 42
20 107 5 107 -6 0 -22 -11 -36 -25 -22 -22 -25 -33 -22 -79 3 -58 -11 -86 -44
-86 -30 0 -33 28 -9 108 12 41 21 76 19 77 -2 2 -16 1 -32 -2 -32 -6 -51 -42
-62 -115 -8 -51 -19 -68 -45 -68 -25 0 -25 48 0 130 16 52 17 61 4 56 -8 -3
-23 -6 -33 -6 -14 0 -23 -14 -36 -57 -19 -60 -36 -88 -67 -105 -26 -14 -47 7
-47 47 0 44 34 150 65 204 14 24 22 48 18 52 -12 12 -135 20 -163 10z m77 -17
c21 -6 21 -6 -8 -52 -30 -48 -59 -129 -59 -166 0 -11 -12 -33 -27 -48 -94 -98
-116 84 -27 214 33 46 74 64 121 52z m611 -182 c6 -55 -49 -135 -79 -116 -23
14 5 116 38 142 25 18 38 10 41 -26z"/>
<path d="M9004 2001 c-53 -32 -82 -123 -48 -151 21 -18 55 13 36 32 -32 32 13
127 52 112 27 -10 26 -37 -4 -143 -34 -118 -36 -147 -14 -179 36 -52 103 -16
160 88 19 36 32 54 28 40 -4 -14 -14 -53 -23 -87 -15 -58 -19 -64 -61 -86 -70
-37 -83 -107 -20 -107 43 0 77 25 109 82 20 34 41 55 74 73 26 13 47 20 47 15
0 -19 33 -40 64 -40 21 0 40 8 54 23 17 17 30 22 52 19 17 -2 37 1 45 8 12 10
15 9 15 -4 0 -9 9 -25 20 -36 16 -16 24 -18 47 -9 16 6 37 19 49 30 21 19 21
19 32 -6 8 -18 19 -25 38 -25 32 0 94 44 94 66 0 12 -5 11 -26 -5 -15 -12 -30
-21 -34 -21 -18 0 -18 34 0 93 26 83 26 86 -12 78 -28 -6 -34 -13 -52 -68 -48
-140 -114 -137 -71 3 20 67 19 71 -14 66 -32 -4 -47 -29 -57 -91 -4 -28 -13
-42 -31 -50 -44 -20 -56 -15 -48 22 5 17 9 52 9 77 l1 45 -46 -1 c-63 0 -104
-31 -126 -96 -12 -35 -27 -57 -48 -69 -16 -11 -33 -19 -36 -19 -3 0 11 71 32
158 21 86 39 163 39 170 0 13 -38 16 -56 4 -5 -4 -23 -43 -38 -87 -48 -137
-111 -245 -142 -245 -21 0 -18 37 11 136 14 47 25 97 25 110 0 36 -20 71 -47
83 -33 15 -43 14 -79 -8z m463 -169 c-19 -20 -22 -73 -7 -101 14 -27 -13 -60
-37 -45 -14 9 -18 24 -18 61 1 58 25 103 57 103 20 0 20 -1 5 -18z m-308 -239
c-14 -38 -28 -53 -50 -53 -28 0 -24 35 7 59 39 31 56 28 43 -6z"/>
<path d="M5015 2002 c-14 -10 -18 -115 -4 -106 14 9 39 68 39 94 0 20 -16 26
-35 12z"/>
<path d="M8355 1952 c-12 -31 -5 -42 25 -42 24 0 33 6 40 26 6 14 10 26 10 27
0 1 -16 2 -35 3 -21 0 -36 -5 -40 -14z"/>
<path d="M4204 1949 c-25 -7 -33 -17 -43 -49 -7 -23 -18 -40 -26 -40 -8 0 -15
-9 -15 -20 0 -11 4 -20 9 -20 18 0 -16 -84 -43 -107 -49 -42 -58 -13 -26 88
10 35 18 65 16 67 -2 2 -18 -3 -34 -12 -26 -14 -31 -14 -42 -1 -18 22 -51 18
-93 -10 -44 -31 -69 -76 -71 -128 -2 -77 68 -94 121 -29 22 26 23 26 23 5 0
-12 7 -28 15 -37 18 -18 56 -7 91 25 21 20 21 20 38 -6 22 -33 65 -33 105 1
17 14 31 21 31 15 0 -6 9 -20 20 -31 16 -16 24 -18 47 -9 16 6 37 19 49 30 21
19 21 19 32 -6 9 -19 19 -25 42 -25 24 0 45 14 98 65 58 57 82 75 82 61 0 -2
-7 -20 -16 -41 -33 -79 4 -112 75 -67 l46 28 20 -24 c29 -34 82 -33 134 1 23
15 41 34 41 43 0 13 -5 12 -29 -5 -32 -23 -71 -27 -89 -9 -21 21 -13 34 28 52
23 10 48 28 56 41 33 50 -15 90 -77 65 -34 -15 -79 -74 -79 -106 0 -24 -29
-54 -53 -54 -23 0 -22 33 3 105 11 32 18 61 15 63 -3 3 -20 -11 -39 -31 -39
-43 -48 -46 -46 -14 5 53 -12 63 -45 27 -13 -14 -16 -29 -12 -54 5 -31 1 -39
-34 -70 -21 -20 -43 -36 -48 -36 -19 0 -19 33 1 100 12 39 19 72 17 75 -3 2
-18 1 -34 -3 -24 -7 -32 -18 -49 -69 -48 -140 -114 -137 -71 3 20 67 19 71
-14 66 -31 -4 -45 -26 -57 -86 -7 -41 -56 -89 -80 -79 -32 12 1 133 36 133 13
0 20 7 20 20 0 11 -7 20 -15 20 -18 0 -18 7 -4 49 6 18 10 33 8 35 -2 2 -18
-1 -35 -5z m-216 -137 c6 -55 -49 -135 -79 -116 -23 14 5 116 38 142 25 18 38
10 41 -26z m870 10 c3 -21 -29 -62 -48 -62 -16 0 -12 43 6 68 19 27 38 24 42
-6z"/>
<path d="M5165 1863 c-11 -2 -28 -21 -39 -43 -10 -22 -29 -49 -42 -61 -31 -29
-34 -61 -3 -33 11 10 28 31 37 46 9 16 19 28 22 28 10 0 40 -69 40 -90 0 -11
-10 -24 -22 -31 -18 -10 -24 -8 -39 12 -15 20 -19 21 -33 10 -39 -33 -1 -66
57 -50 66 18 101 87 73 145 -9 19 -16 44 -16 54 0 11 -3 19 -7 19 -5 -1 -17
-4 -28 -6z"/>
</g>
</svg>
